<svg width="25" height="24" viewBox="0 0 25 24" fill="none" xmlns="http://www.w3.org/2000/svg">
<path fill-rule="evenodd" clip-rule="evenodd" d="M18.9833 19.7901L18.984 19.7884L19.0014 19.7449L22.0002 4.6258V4.57669C22.0002 4.19999 21.861 3.87113 21.5581 3.67387C21.293 3.50121 20.9882 3.48892 20.7745 3.50514C20.5485 3.52229 20.3354 3.57871 20.1879 3.62567C20.112 3.64983 20.0484 3.67311 20.003 3.69071C19.9802 3.69955 19.9617 3.70705 19.9483 3.71263L19.9351 3.71819L3.21526 10.2771L3.21066 10.2788C3.20163 10.2821 3.18969 10.2865 3.17526 10.2921C3.14651 10.3033 3.10737 10.3193 3.06139 10.3402C2.97111 10.3811 2.84637 10.4442 2.71987 10.5309C2.50502 10.678 2.0959 11.0263 2.16499 11.5785C2.22221 12.036 2.53751 12.3265 2.75008 12.4769C2.86403 12.5575 2.97304 12.6156 3.05287 12.6536C3.09332 12.6729 3.12767 12.6876 3.15326 12.6981C3.16609 12.7033 3.17682 12.7075 3.18512 12.7106L3.19574 12.7146L3.20253 12.7171L6.12777 13.7019C6.1179 13.8854 6.1361 14.0726 6.18478 14.2572L7.65006 19.8156C7.8238 20.4747 8.42002 20.9337 9.10159 20.9333C9.71252 20.9328 10.2544 20.5632 10.4845 20.0118L12.7722 17.5657L16.7012 20.578L16.7571 20.6023C17.114 20.7581 17.4475 20.8075 17.7525 20.7658C18.057 20.7242 18.2989 20.5965 18.4807 20.4511C18.6595 20.308 18.7821 20.1465 18.8592 20.0249C18.8984 19.9631 18.9276 19.9088 18.9478 19.868C18.958 19.8475 18.966 19.8301 18.972 19.8166L18.9796 19.7991L18.9822 19.7927L18.9833 19.7901ZM7.63518 13.8748C7.60187 13.7485 7.65416 13.6151 7.76444 13.5451L17.6865 7.2442C17.6865 7.2442 18.27 6.8899 18.2492 7.2442C18.2492 7.2442 18.3533 7.30676 18.0406 7.59849C17.744 7.87557 10.9689 14.4166 10.2834 15.0785C10.2438 15.1167 10.2202 15.1605 10.2063 15.2137L9.10046 19.4332L7.63518 13.8748Z" fill="white"/>
</svg>
