<svg width="25" height="20" viewBox="0 0 25 20" fill="none" xmlns="http://www.w3.org/2000/svg">
<path d="M24.454 2.323C23.5691 2.712 22.624 2.977 21.6291 3.098C22.6431 2.487 23.4229 1.524 23.792 0.375C22.8411 0.930001 21.7871 1.334 20.6651 1.559C19.7691 0.600001 18.492 0 17.074 0C14.3569 0 12.154 2.203 12.154 4.917C12.154 5.307 12.199 5.682 12.281 6.041C8.191 5.848 4.566 3.884 2.14 0.915001C1.713 1.637 1.474 2.476 1.474 3.39C1.474 5.1 2.344 6.603 3.662 7.486C2.855 7.46 2.096 7.238 1.434 6.87V6.931C1.434 9.316 3.127 11.305 5.38 11.758C4.967 11.869 4.531 11.929 4.084 11.929C3.77 11.929 3.469 11.899 3.168 11.843C3.799 13.796 5.613 15.22 7.772 15.26C6.092 16.5791 3.963 17.3651 1.67 17.3651C1.28 17.3651 0.891 17.342 0.5 17.298C2.689 18.692 5.268 19.5071 8.057 19.5071C17.1111 19.5071 22.056 12.011 22.056 5.521C22.056 5.312 22.056 5.101 22.0411 4.891C23.002 4.202 23.8409 3.331 24.5009 2.343L24.454 2.323Z" fill="white"/>
</svg>
