<svg width="24" height="20" viewBox="0 0 24 20" fill="none" xmlns="http://www.w3.org/2000/svg">
<path d="M23.954 2.5691C23.0691 2.9581 22.124 3.22309 21.1291 3.34409C22.1431 2.73309 22.9229 1.7701 23.292 0.621094C22.3411 1.1761 21.2871 1.5801 20.1651 1.8051C19.2691 0.846095 17.992 0.246094 16.574 0.246094C13.8569 0.246094 11.654 2.4491 11.654 5.1631C11.654 5.5531 11.699 5.9281 11.781 6.2871C7.691 6.0941 4.066 4.1301 1.64 1.1611C1.213 1.8831 0.974 2.7221 0.974 3.6361C0.974 5.3461 1.844 6.8491 3.162 7.7321C2.355 7.7061 1.596 7.4841 0.934 7.1161V7.1771C0.934 9.5621 2.627 11.5511 4.88 12.0041C4.467 12.1151 4.031 12.1751 3.584 12.1751C3.27 12.1751 2.969 12.1451 2.668 12.0891C3.299 14.0421 5.113 15.4661 7.272 15.5061C5.592 16.8251 3.463 17.6111 1.17 17.6111C0.78 17.6111 0.391 17.5881 0 17.5441C2.189 18.9381 4.768 19.7531 7.557 19.7531C16.6111 19.7531 21.556 12.2571 21.556 5.7671C21.556 5.5581 21.556 5.3471 21.5411 5.13709C22.502 4.44809 23.3409 3.5771 24.0009 2.5891L23.954 2.5691Z" fill="#6E6E73"/>
</svg>
